<svg width="24" height="24" viewBox="0 0 24 24" fill="none" xmlns="http://www.w3.org/2000/svg">
<path fill-rule="evenodd" clip-rule="evenodd" d="M8.20005 3.2H16.7C17.6942 3.2 18.5 4.00589 18.5 5V18.6C18.5 19.5941 17.6942 20.4 16.7 20.4H8.20005V3.2ZM7.20005 3.20273C6.25245 3.25462 5.50005 4.03944 5.50005 5V18.6C5.50005 19.5606 6.25245 20.3454 7.20005 20.3973V3.20273ZM4.30005 5C4.30005 3.34315 5.64319 2 7.30005 2H16.7C18.3569 2 19.7 3.34315 19.7 5V18.6C19.7 20.2569 18.3569 21.6 16.7 21.6H10.9V23.8L9.45005 22.5736L8.00005 23.8V21.6H7.30005C5.64319 21.6 4.30005 20.2569 4.30005 18.6V5ZM10.9 5.4C10.2373 5.4 9.70005 5.93726 9.70005 6.6V8.1C9.70005 8.76274 10.2373 9.3 10.9 9.3H15.9C16.5628 9.3 17.1 8.76274 17.1 8.1V6.6C17.1 5.93726 16.5628 5.4 15.9 5.4H10.9Z" fill="white"/>
</svg>
